<svg viewBox="0 0 128 17" fill="none" xmlns="http://www.w3.org/2000/svg">
<style>
   path.text {
      fill: black;
   }

   path.icon {
      stroke: black;
   }
</style>
<path class="text" d="M22.54 13.168C21.924 13.168 21.388 13.044 20.932 12.796C20.476 12.54 20.124 12.18 19.876 11.716C19.628 11.252 19.504 10.704 19.504 10.072C19.504 9.432 19.636 8.868 19.9 8.38C20.172 7.892 20.54 7.512 21.004 7.24C21.468 6.968 21.996 6.832 22.588 6.832C23.06 6.832 23.464 6.904 23.8 7.048C24.144 7.184 24.42 7.364 24.628 7.588C24.836 7.804 24.976 8.04 25.048 8.296C25.024 8.512 24.952 8.684 24.832 8.812C24.712 8.94 24.544 9.004 24.328 9.004C24.088 9.004 23.9 8.928 23.764 8.776C23.628 8.624 23.54 8.424 23.5 8.176L23.26 7.132L24.076 7.768C23.908 7.688 23.728 7.624 23.536 7.576C23.344 7.528 23.116 7.504 22.852 7.504C22.508 7.504 22.204 7.596 21.94 7.78C21.684 7.964 21.48 8.236 21.328 8.596C21.184 8.948 21.112 9.38 21.112 9.892C21.112 10.388 21.188 10.804 21.34 11.14C21.5 11.476 21.716 11.728 21.988 11.896C22.268 12.064 22.588 12.148 22.948 12.148C23.204 12.148 23.428 12.116 23.62 12.052C23.812 11.98 23.98 11.888 24.124 11.776C24.276 11.656 24.416 11.524 24.544 11.38L25.048 11.836C24.904 12.06 24.724 12.276 24.508 12.484C24.3 12.684 24.036 12.848 23.716 12.976C23.396 13.104 23.004 13.168 22.54 13.168ZM25.7598 13V12.316L27.0918 12.232H27.7278L29.0718 12.316V13H25.7598ZM26.6358 13C26.6438 12.712 26.6478 12.424 26.6478 12.136C26.6478 11.848 26.6478 11.56 26.6478 11.272C26.6478 10.976 26.6478 10.684 26.6478 10.396V5.452L25.6998 5.248V4.684L27.7518 4.276L28.1958 4.312L28.1838 5.86V10.396C28.1838 10.684 28.1838 10.976 28.1838 11.272C28.1838 11.56 28.1838 11.848 28.1838 12.136C28.1918 12.424 28.1958 12.712 28.1958 13H26.6358ZM33.0523 13.168C32.4203 13.168 31.8763 13.044 31.4203 12.796C30.9643 12.54 30.6123 12.18 30.3643 11.716C30.1163 11.252 29.9923 10.704 29.9923 10.072C29.9923 9.432 30.1163 8.868 30.3643 8.38C30.6203 7.892 30.9723 7.512 31.4203 7.24C31.8763 6.968 32.3923 6.832 32.9683 6.832C33.4963 6.832 33.9523 6.936 34.3363 7.144C34.7283 7.344 35.0283 7.628 35.2363 7.996C35.4443 8.356 35.5483 8.788 35.5483 9.292C35.5483 9.452 35.5403 9.604 35.5243 9.748C35.5083 9.892 35.4883 10.02 35.4643 10.132H31.0123V9.52H33.8683C33.9803 9.424 34.0523 9.324 34.0843 9.22C34.1163 9.116 34.1323 8.988 34.1323 8.836C34.1323 8.548 34.0843 8.308 33.9883 8.116C33.9003 7.916 33.7683 7.768 33.5923 7.672C33.4163 7.568 33.2083 7.516 32.9683 7.516C32.6883 7.516 32.4443 7.596 32.2363 7.756C32.0283 7.916 31.8643 8.172 31.7443 8.524C31.6243 8.868 31.5643 9.324 31.5643 9.892C31.5643 10.388 31.6443 10.808 31.8043 11.152C31.9643 11.488 32.1883 11.744 32.4763 11.92C32.7643 12.088 33.0963 12.172 33.4723 12.172C33.8643 12.172 34.1923 12.104 34.4563 11.968C34.7203 11.824 34.9523 11.632 35.1523 11.392L35.6203 11.764C35.4443 12.036 35.2403 12.28 35.0083 12.496C34.7843 12.704 34.5123 12.868 34.1923 12.988C33.8723 13.108 33.4923 13.168 33.0523 13.168ZM38.1405 13.18C37.6765 13.18 37.2845 13.044 36.9645 12.772C36.6445 12.492 36.4845 12.1 36.4845 11.596C36.4845 11.284 36.5525 11.008 36.6885 10.768C36.8325 10.528 37.0565 10.32 37.3605 10.144C37.6725 9.96 38.0885 9.804 38.6085 9.676C38.8245 9.612 39.0405 9.552 39.2565 9.496C39.4805 9.44 39.7005 9.384 39.9165 9.328C40.1405 9.264 40.3605 9.204 40.5765 9.148V9.676C40.3205 9.756 40.0525 9.84 39.7725 9.928C39.5005 10.008 39.2325 10.088 38.9685 10.168C38.7045 10.248 38.4965 10.344 38.3445 10.456C38.1925 10.568 38.0845 10.692 38.0205 10.828C37.9645 10.964 37.9365 11.112 37.9365 11.272C37.9365 11.552 38.0245 11.772 38.2005 11.932C38.3765 12.092 38.6125 12.172 38.9085 12.172C39.0925 12.172 39.2565 12.14 39.4005 12.076C39.5525 12.012 39.7085 11.924 39.8685 11.812C40.0285 11.692 40.2045 11.556 40.3965 11.404L40.4445 12.076H39.9525C39.8245 12.26 39.6805 12.44 39.5205 12.616C39.3685 12.784 39.1805 12.92 38.9565 13.024C38.7405 13.128 38.4685 13.18 38.1405 13.18ZM41.4645 13.156C41.0725 13.156 40.7605 13.044 40.5285 12.82C40.3045 12.596 40.1725 12.272 40.1325 11.848L40.0845 11.824V8.884C40.0845 8.54 40.0405 8.268 39.9525 8.068C39.8645 7.868 39.7325 7.728 39.5565 7.648C39.3805 7.56 39.1565 7.516 38.8845 7.516C38.6765 7.516 38.4805 7.532 38.2965 7.564C38.1125 7.596 37.9325 7.648 37.7565 7.72L38.2965 7.168L38.1885 8.2C38.1645 8.536 38.0805 8.78 37.9365 8.932C37.7925 9.076 37.6125 9.148 37.3965 9.148C37.1805 9.148 37.0085 9.092 36.8805 8.98C36.7605 8.868 36.6845 8.724 36.6525 8.548C36.7405 8.028 37.0165 7.612 37.4805 7.3C37.9525 6.988 38.5605 6.832 39.3045 6.832C39.7925 6.832 40.2045 6.908 40.5405 7.06C40.8845 7.204 41.1485 7.432 41.3325 7.744C41.5165 8.056 41.6085 8.468 41.6085 8.98V11.644C41.6085 11.836 41.6445 11.976 41.7165 12.064C41.7965 12.152 41.9085 12.196 42.0525 12.196C42.1405 12.196 42.2245 12.184 42.3045 12.16C42.3845 12.136 42.4565 12.104 42.5205 12.064L42.7005 12.568C42.5805 12.736 42.4165 12.876 42.2085 12.988C42.0005 13.1 41.7525 13.156 41.4645 13.156ZM43.2216 13V12.316L44.5416 12.232H45.1896L46.4136 12.316V13H43.2216ZM44.0856 13C44.0856 12.744 44.0856 12.468 44.0856 12.172C44.0936 11.876 44.0976 11.576 44.0976 11.272C44.0976 10.968 44.0976 10.676 44.0976 10.396V9.736C44.0976 9.544 44.0976 9.368 44.0976 9.208C44.0976 9.04 44.0936 8.876 44.0856 8.716C44.0856 8.556 44.0856 8.392 44.0856 8.224L43.1616 8.188V7.576L44.9496 6.94L45.3696 6.988L45.5496 8.248L45.6336 8.26V10.396C45.6336 10.676 45.6336 10.968 45.6336 11.272C45.6336 11.576 45.6336 11.876 45.6336 12.172C45.6336 12.468 45.6376 12.744 45.6456 13H44.0856ZM47.2536 13V12.316L48.5016 12.232H49.1496L50.4456 12.316V13H47.2536ZM48.0456 13C48.0536 12.744 48.0576 12.468 48.0576 12.172C48.0576 11.876 48.0576 11.576 48.0576 11.272C48.0576 10.968 48.0576 10.676 48.0576 10.396V9.184C48.0576 8.752 47.9816 8.448 47.8296 8.272C47.6856 8.088 47.4496 7.996 47.1216 7.996C46.9296 7.996 46.7376 8.028 46.5456 8.092C46.3536 8.148 46.1576 8.232 45.9576 8.344C45.7656 8.456 45.5696 8.592 45.3696 8.752L45.3336 8.104H45.7296C45.8976 7.864 46.0816 7.648 46.2816 7.456C46.4816 7.264 46.7056 7.112 46.9536 7C47.2096 6.888 47.4896 6.832 47.7936 6.832C48.3776 6.832 48.8216 7.008 49.1256 7.36C49.4376 7.712 49.5936 8.232 49.5936 8.92V10.396C49.5936 10.676 49.5936 10.968 49.5936 11.272C49.5936 11.576 49.5936 11.876 49.5936 12.172C49.5936 12.468 49.5976 12.744 49.6056 13H48.0456ZM51.2618 10.36V9.304H54.3098V10.36H51.2618ZM55.1725 15.856C54.9085 15.856 54.6845 15.816 54.5005 15.736C54.3165 15.664 54.1765 15.568 54.0805 15.448C53.9765 15.336 53.9045 15.212 53.8645 15.076C53.9125 14.86 54.0085 14.688 54.1525 14.56C54.2885 14.432 54.4805 14.368 54.7285 14.368C54.9605 14.368 55.1485 14.424 55.2925 14.536C55.4445 14.648 55.5685 14.796 55.6645 14.98L55.9405 15.424L55.7365 15.352H55.9405L55.8085 15.388C55.8565 15.284 55.8965 15.18 55.9285 15.076C55.9605 14.972 55.9925 14.832 56.0245 14.656C56.0485 14.448 56.0605 14.204 56.0605 13.924C56.0685 13.652 56.0725 13.328 56.0725 12.952C56.0725 12.576 56.0725 12.132 56.0725 11.62V9.76C56.0725 9.48 56.0685 9.22 56.0605 8.98C56.0605 8.732 56.0605 8.48 56.0605 8.224L55.1365 8.188V7.576L57.1525 6.94L57.5965 6.988L57.5845 8.5V11.92C57.5845 12.44 57.5645 12.88 57.5245 13.24C57.4925 13.608 57.4285 13.924 57.3325 14.188C57.2445 14.452 57.1245 14.688 56.9725 14.896C56.7725 15.2 56.5245 15.436 56.2285 15.604C55.9405 15.772 55.5885 15.856 55.1725 15.856ZM56.8045 5.908C56.5485 5.908 56.3285 5.824 56.1445 5.656C55.9685 5.48 55.8805 5.264 55.8805 5.008C55.8805 4.752 55.9685 4.54 56.1445 4.372C56.3285 4.196 56.5485 4.108 56.8045 4.108C57.0765 4.108 57.3005 4.196 57.4765 4.372C57.6525 4.54 57.7405 4.752 57.7405 5.008C57.7405 5.264 57.6525 5.48 57.4765 5.656C57.3005 5.824 57.0765 5.908 56.8045 5.908ZM61.3443 13.168C60.9123 13.168 60.5123 13.124 60.1443 13.036C59.7843 12.948 59.4723 12.844 59.2083 12.724L59.1963 11.248H60.0603L60.3483 12.7L59.7363 12.712V12.148C59.9363 12.244 60.1723 12.328 60.4443 12.4C60.7163 12.464 61.0083 12.496 61.3203 12.496C61.6163 12.496 61.8523 12.456 62.0283 12.376C62.2123 12.296 62.3443 12.188 62.4243 12.052C62.5123 11.916 62.5563 11.768 62.5563 11.608C62.5563 11.376 62.4683 11.192 62.2923 11.056C62.1243 10.912 61.8363 10.776 61.4283 10.648L61.0443 10.528C60.6683 10.408 60.3443 10.268 60.0723 10.108C59.8003 9.948 59.5883 9.756 59.4363 9.532C59.2843 9.3 59.2083 9.02 59.2083 8.692C59.2083 8.324 59.3083 8.004 59.5083 7.732C59.7083 7.452 59.9923 7.232 60.3603 7.072C60.7363 6.912 61.1803 6.832 61.6923 6.832C62.0603 6.832 62.4083 6.876 62.7363 6.964C63.0723 7.044 63.3723 7.144 63.6363 7.264L63.5883 8.644H62.7363L62.4843 7.264H63.0003V7.804C62.8163 7.7 62.6163 7.624 62.4003 7.576C62.1843 7.528 61.9523 7.504 61.7043 7.504C61.3363 7.504 61.0603 7.58 60.8763 7.732C60.6923 7.876 60.6003 8.064 60.6003 8.296C60.6003 8.512 60.6803 8.688 60.8403 8.824C61.0083 8.952 61.3003 9.08 61.7163 9.208L62.0523 9.316C62.4683 9.444 62.8203 9.596 63.1083 9.772C63.3963 9.94 63.6123 10.144 63.7563 10.384C63.9083 10.616 63.9843 10.896 63.9843 11.224C63.9843 11.608 63.8763 11.948 63.6603 12.244C63.4523 12.532 63.1523 12.76 62.7603 12.928C62.3683 13.088 61.8963 13.168 61.3443 13.168ZM67.4442 13.168C66.9722 13.168 66.5522 13.048 66.1842 12.808C65.8162 12.56 65.5242 12.204 65.3082 11.74C65.1002 11.268 64.9962 10.7 64.9962 10.036C64.9962 9.364 65.1042 8.792 65.3202 8.32C65.5442 7.84 65.8442 7.472 66.2202 7.216C66.6042 6.96 67.0322 6.832 67.5042 6.832C67.8162 6.832 68.0762 6.884 68.2842 6.988C68.5002 7.084 68.6842 7.22 68.8362 7.396C68.9882 7.564 69.1242 7.756 69.2442 7.972H69.7842L69.7482 8.836C69.4762 8.5 69.2122 8.248 68.9562 8.08C68.7082 7.904 68.4202 7.816 68.0922 7.816C67.8122 7.816 67.5602 7.892 67.3362 8.044C67.1122 8.196 66.9322 8.432 66.7962 8.752C66.6682 9.072 66.6042 9.484 66.6042 9.988C66.6042 10.484 66.6682 10.892 66.7962 11.212C66.9242 11.532 67.1002 11.768 67.3242 11.92C67.5482 12.072 67.8042 12.148 68.0922 12.148C68.4282 12.148 68.7202 12.056 68.9682 11.872C69.2242 11.688 69.4842 11.424 69.7482 11.08L69.7962 11.932H69.2562C69.1362 12.164 68.9962 12.372 68.8362 12.556C68.6842 12.74 68.4962 12.888 68.2722 13C68.0482 13.112 67.7722 13.168 67.4442 13.168ZM69.5442 13.084L69.4002 11.812L69.3522 11.8V8.188L69.4242 8.14L69.3762 5.452L68.4042 5.248V4.684L70.4562 4.276L70.9002 4.312L70.8882 5.86V12.184L71.7642 12.352V13L69.5442 13.084ZM75.7445 13.168C75.1845 13.168 74.6685 13.048 74.1965 12.808C73.7325 12.56 73.3565 12.204 73.0685 11.74C72.7885 11.268 72.6485 10.692 72.6485 10.012C72.6485 9.332 72.7925 8.756 73.0805 8.284C73.3685 7.812 73.7445 7.452 74.2085 7.204C74.6805 6.956 75.1925 6.832 75.7445 6.832C76.2965 6.832 76.8085 6.956 77.2805 7.204C77.7525 7.444 78.1325 7.796 78.4205 8.26C78.7085 8.724 78.8525 9.296 78.8525 9.976C78.8525 10.648 78.7085 11.224 78.4205 11.704C78.1405 12.176 77.7645 12.54 77.2925 12.796C76.8205 13.044 76.3045 13.168 75.7445 13.168ZM75.7445 12.448C76.0565 12.448 76.3205 12.364 76.5365 12.196C76.7605 12.028 76.9285 11.764 77.0405 11.404C77.1605 11.044 77.2205 10.584 77.2205 10.024C77.2205 9.456 77.1605 8.992 77.0405 8.632C76.9285 8.264 76.7605 7.992 76.5365 7.816C76.3205 7.64 76.0565 7.552 75.7445 7.552C75.4325 7.552 75.1645 7.64 74.9405 7.816C74.7245 7.984 74.5605 8.248 74.4485 8.608C74.3365 8.968 74.2805 9.428 74.2805 9.988C74.2805 10.556 74.3365 11.02 74.4485 11.38C74.5605 11.74 74.7245 12.008 74.9405 12.184C75.1645 12.36 75.4325 12.448 75.7445 12.448ZM82.9267 13.168C82.3107 13.168 81.7747 13.044 81.3187 12.796C80.8627 12.54 80.5107 12.18 80.2627 11.716C80.0147 11.252 79.8907 10.704 79.8907 10.072C79.8907 9.432 80.0227 8.868 80.2867 8.38C80.5587 7.892 80.9267 7.512 81.3907 7.24C81.8547 6.968 82.3827 6.832 82.9747 6.832C83.4467 6.832 83.8507 6.904 84.1867 7.048C84.5307 7.184 84.8067 7.364 85.0147 7.588C85.2227 7.804 85.3627 8.04 85.4347 8.296C85.4107 8.512 85.3387 8.684 85.2187 8.812C85.0987 8.94 84.9307 9.004 84.7147 9.004C84.4747 9.004 84.2867 8.928 84.1507 8.776C84.0147 8.624 83.9267 8.424 83.8867 8.176L83.6467 7.132L84.4627 7.768C84.2947 7.688 84.1147 7.624 83.9227 7.576C83.7307 7.528 83.5027 7.504 83.2387 7.504C82.8947 7.504 82.5907 7.596 82.3267 7.78C82.0707 7.964 81.8667 8.236 81.7147 8.596C81.5707 8.948 81.4987 9.38 81.4987 9.892C81.4987 10.388 81.5747 10.804 81.7267 11.14C81.8867 11.476 82.1027 11.728 82.3747 11.896C82.6547 12.064 82.9747 12.148 83.3347 12.148C83.5907 12.148 83.8147 12.116 84.0067 12.052C84.1987 11.98 84.3667 11.888 84.5107 11.776C84.6627 11.656 84.8027 11.524 84.9307 11.38L85.4347 11.836C85.2907 12.06 85.1107 12.276 84.8947 12.484C84.6867 12.684 84.4227 12.848 84.1027 12.976C83.7827 13.104 83.3907 13.168 82.9267 13.168ZM86.3243 10.36V9.304H89.3723V10.36H86.3243ZM91.831 7.84V7.036H94.087V7.84H91.831ZM92.719 13.144C92.207 13.144 91.795 13.008 91.483 12.736C91.179 12.464 91.027 12.032 91.027 11.44C91.027 11.28 91.027 11.12 91.027 10.96C91.035 10.792 91.039 10.616 91.039 10.432V7.84H90.091V7.168L91.579 6.988L91.075 7.372L91.675 5.332H92.647L92.503 7.42L92.563 7.504V11.332C92.563 11.636 92.627 11.856 92.755 11.992C92.891 12.12 93.075 12.184 93.307 12.184C93.451 12.184 93.579 12.164 93.691 12.124C93.803 12.084 93.903 12.04 93.991 11.992L94.279 12.544C94.199 12.632 94.087 12.724 93.943 12.82C93.799 12.908 93.623 12.984 93.415 13.048C93.215 13.112 92.983 13.144 92.719 13.144ZM94.8539 13V12.316L96.1739 12.232H96.8219L98.0699 12.316V13H94.8539ZM95.7179 13C95.7259 12.744 95.7299 12.468 95.7299 12.172C95.7299 11.876 95.7299 11.576 95.7299 11.272C95.7299 10.968 95.7299 10.676 95.7299 10.396V5.452L94.7819 5.248V4.684L96.8219 4.276L97.2659 4.312L97.2539 5.86L97.2419 8.308L97.2659 8.368V10.396C97.2659 10.676 97.2659 10.968 97.2659 11.272C97.2659 11.576 97.2659 11.876 97.2659 12.172C97.2739 12.468 97.2779 12.744 97.2779 13H95.7179ZM98.8979 13V12.316L100.146 12.232H100.794L102.102 12.316V13H98.8979ZM99.6899 13C99.6979 12.744 99.7019 12.468 99.7019 12.172C99.7019 11.876 99.7019 11.576 99.7019 11.272C99.7019 10.968 99.7019 10.676 99.7019 10.396V9.184C99.7019 8.752 99.6299 8.448 99.4859 8.272C99.3419 8.088 99.1019 7.996 98.7659 7.996C98.5819 7.996 98.3939 8.028 98.2019 8.092C98.0099 8.148 97.8139 8.236 97.6139 8.356C97.4219 8.468 97.2259 8.608 97.0259 8.776L96.9659 8.116H97.4579C97.6019 7.884 97.7659 7.672 97.9499 7.48C98.1419 7.28 98.3579 7.124 98.5979 7.012C98.8459 6.892 99.1259 6.832 99.4379 6.832C100.03 6.832 100.478 7.008 100.782 7.36C101.086 7.712 101.238 8.236 101.238 8.932V10.396C101.238 10.676 101.238 10.968 101.238 11.272C101.238 11.576 101.238 11.876 101.238 12.172C101.246 12.468 101.25 12.744 101.25 13H99.6899ZM105.943 13.168C105.311 13.168 104.767 13.044 104.311 12.796C103.855 12.54 103.503 12.18 103.255 11.716C103.007 11.252 102.883 10.704 102.883 10.072C102.883 9.432 103.007 8.868 103.255 8.38C103.511 7.892 103.863 7.512 104.311 7.24C104.767 6.968 105.283 6.832 105.859 6.832C106.387 6.832 106.843 6.936 107.227 7.144C107.619 7.344 107.919 7.628 108.127 7.996C108.335 8.356 108.439 8.788 108.439 9.292C108.439 9.452 108.431 9.604 108.415 9.748C108.399 9.892 108.379 10.02 108.355 10.132H103.903V9.52H106.759C106.871 9.424 106.943 9.324 106.975 9.22C107.007 9.116 107.023 8.988 107.023 8.836C107.023 8.548 106.975 8.308 106.879 8.116C106.791 7.916 106.659 7.768 106.483 7.672C106.307 7.568 106.099 7.516 105.859 7.516C105.579 7.516 105.335 7.596 105.127 7.756C104.919 7.916 104.755 8.172 104.635 8.524C104.515 8.868 104.455 9.324 104.455 9.892C104.455 10.388 104.535 10.808 104.695 11.152C104.855 11.488 105.079 11.744 105.367 11.92C105.655 12.088 105.987 12.172 106.363 12.172C106.755 12.172 107.083 12.104 107.347 11.968C107.611 11.824 107.843 11.632 108.043 11.392L108.511 11.764C108.335 12.036 108.131 12.28 107.899 12.496C107.675 12.704 107.403 12.868 107.083 12.988C106.763 13.108 106.383 13.168 105.943 13.168ZM109.409 13V12.316L110.729 12.232H111.377L112.589 12.316V13H109.409ZM110.273 13C110.273 12.744 110.273 12.468 110.273 12.172C110.281 11.876 110.285 11.576 110.285 11.272C110.285 10.968 110.285 10.676 110.285 10.396V9.736C110.285 9.544 110.285 9.368 110.285 9.208C110.285 9.04 110.281 8.876 110.273 8.716C110.273 8.556 110.273 8.392 110.273 8.224L109.349 8.188V7.576L111.137 6.94L111.557 6.988L111.737 8.248L111.821 8.26V10.396C111.821 10.676 111.821 10.968 111.821 11.272C111.821 11.576 111.821 11.876 111.821 12.172C111.821 12.468 111.825 12.744 111.833 13H110.273ZM113.369 13V12.316L114.593 12.232H115.253L116.489 12.316V13H113.369ZM114.149 13C114.149 12.744 114.149 12.468 114.149 12.172C114.157 11.876 114.161 11.576 114.161 11.272C114.161 10.968 114.161 10.676 114.161 10.396V9.196C114.161 8.764 114.089 8.456 113.945 8.272C113.809 8.088 113.577 7.996 113.249 7.996C113.057 7.996 112.865 8.028 112.673 8.092C112.489 8.156 112.301 8.244 112.109 8.356C111.917 8.468 111.725 8.6 111.533 8.752L111.497 8.128H111.905C112.057 7.896 112.229 7.684 112.421 7.492C112.621 7.292 112.841 7.132 113.081 7.012C113.329 6.892 113.609 6.832 113.921 6.832C114.513 6.832 114.953 7.008 115.241 7.36C115.537 7.712 115.685 8.232 115.685 8.92V10.396C115.685 10.676 115.685 10.968 115.685 11.272C115.685 11.576 115.685 11.876 115.685 12.172C115.693 12.468 115.697 12.744 115.697 13H114.149ZM117.245 13V12.316L118.469 12.232H119.117L120.413 12.316V13H117.245ZM118.025 13C118.025 12.744 118.025 12.468 118.025 12.172C118.025 11.876 118.025 11.576 118.025 11.272C118.033 10.968 118.037 10.676 118.037 10.396V9.196C118.037 8.756 117.965 8.448 117.821 8.272C117.677 8.088 117.441 7.996 117.113 7.996C116.929 7.996 116.741 8.028 116.549 8.092C116.365 8.148 116.177 8.232 115.985 8.344C115.793 8.456 115.601 8.592 115.409 8.752L115.349 8.128H115.757C115.917 7.88 116.093 7.66 116.285 7.468C116.485 7.276 116.709 7.124 116.957 7.012C117.205 6.892 117.481 6.832 117.785 6.832C118.377 6.832 118.821 7.008 119.117 7.36C119.413 7.704 119.561 8.22 119.561 8.908V10.396C119.561 10.676 119.561 10.968 119.561 11.272C119.561 11.576 119.561 11.876 119.561 12.172C119.561 12.468 119.565 12.744 119.573 13H118.025ZM124.283 13.168C123.651 13.168 123.107 13.044 122.651 12.796C122.195 12.54 121.843 12.18 121.595 11.716C121.347 11.252 121.223 10.704 121.223 10.072C121.223 9.432 121.347 8.868 121.595 8.38C121.851 7.892 122.203 7.512 122.651 7.24C123.107 6.968 123.623 6.832 124.199 6.832C124.727 6.832 125.183 6.936 125.567 7.144C125.959 7.344 126.259 7.628 126.467 7.996C126.675 8.356 126.779 8.788 126.779 9.292C126.779 9.452 126.771 9.604 126.755 9.748C126.739 9.892 126.719 10.02 126.695 10.132H122.243V9.52H125.099C125.211 9.424 125.283 9.324 125.315 9.22C125.347 9.116 125.363 8.988 125.363 8.836C125.363 8.548 125.315 8.308 125.219 8.116C125.131 7.916 124.999 7.768 124.823 7.672C124.647 7.568 124.439 7.516 124.199 7.516C123.919 7.516 123.675 7.596 123.467 7.756C123.259 7.916 123.095 8.172 122.975 8.524C122.855 8.868 122.795 9.324 122.795 9.892C122.795 10.388 122.875 10.808 123.035 11.152C123.195 11.488 123.419 11.744 123.707 11.92C123.995 12.088 124.327 12.172 124.703 12.172C125.095 12.172 125.423 12.104 125.687 11.968C125.951 11.824 126.183 11.632 126.383 11.392L126.851 11.764C126.675 12.036 126.471 12.28 126.239 12.496C126.015 12.704 125.743 12.868 125.423 12.988C125.103 13.108 124.723 13.168 124.283 13.168Z"/>
<path class="icon" d="M4.66667 2V14M2.66667 2H6.66667C7.03486 2 7.33333 2.29848 7.33333 2.66667V13.3333C7.33333 13.7015 7.03486 14 6.66667 14H2.66667C2.29848 14 2 13.7015 2 13.3333V2.66667C2 2.29848 2.29848 2 2.66667 2ZM13.6 12.6C13.7333 12.9333 13.5333 13.3333 13.2 13.4667L11.9333 13.9333C11.6 14.0667 11.2 13.8667 11.0667 13.5333L7.4 3.4C7.26667 3.06667 7.46667 2.66667 7.8 2.53333L9.06667 2.06667C9.4 1.93333 9.8 2.13333 9.93333 2.46667L13.6 12.6Z" stroke="black" stroke-linecap="round" stroke-linejoin="round"/>
</svg>
